<mxfile host="app.diagrams.net" modified="2022-07-17T04:16:17.856Z" agent="5.0 (Macintosh; Intel Mac OS X 10_15_7) AppleWebKit/537.36 (KHTML, like Gecko) Chrome/103.0.5060.114 Safari/537.36" etag="da3GZ_h31-V9i4Vv6nsa" version="20.1.1" type="github">
  <diagram id="wp_xYZn4VHThL3dPTbGy" name="Page-1">
    <mxGraphModel dx="2614" dy="1195" grid="1" gridSize="10" guides="1" tooltips="1" connect="1" arrows="1" fold="1" page="1" pageScale="1" pageWidth="827" pageHeight="1169" math="0" shadow="0">
      <root>
        <mxCell id="0" />
        <mxCell id="1" parent="0" />
        <mxCell id="GzxjLerJVdwIG-m4BnVG-5" value="" style="edgeStyle=orthogonalEdgeStyle;rounded=0;orthogonalLoop=1;jettySize=auto;html=1;fontSize=24;" edge="1" parent="1" source="GzxjLerJVdwIG-m4BnVG-1" target="GzxjLerJVdwIG-m4BnVG-4">
          <mxGeometry relative="1" as="geometry" />
        </mxCell>
        <mxCell id="GzxjLerJVdwIG-m4BnVG-1" value="&lt;font style=&quot;font-size: 24px;&quot; data-font-src=&quot;https://fonts.googleapis.com/css?family=Kanit&quot; face=&quot;Kanit&quot;&gt;Start&lt;/font&gt;" style="strokeWidth=2;html=1;shape=mxgraph.flowchart.terminator;whiteSpace=wrap;" vertex="1" parent="1">
          <mxGeometry x="-235" y="30" width="120" height="60" as="geometry" />
        </mxCell>
        <mxCell id="GzxjLerJVdwIG-m4BnVG-2" value="&lt;font style=&quot;font-size: 24px;&quot; data-font-src=&quot;https://fonts.googleapis.com/css?family=Kanit&quot; face=&quot;Kanit&quot;&gt;End&lt;br&gt;&lt;/font&gt;" style="strokeWidth=2;html=1;shape=mxgraph.flowchart.terminator;whiteSpace=wrap;" vertex="1" parent="1">
          <mxGeometry x="-235" y="2000" width="120" height="60" as="geometry" />
        </mxCell>
        <mxCell id="GzxjLerJVdwIG-m4BnVG-6" value="" style="edgeStyle=orthogonalEdgeStyle;rounded=0;orthogonalLoop=1;jettySize=auto;html=1;fontSize=24;" edge="1" parent="1" source="GzxjLerJVdwIG-m4BnVG-4">
          <mxGeometry relative="1" as="geometry">
            <mxPoint x="-175" y="310" as="targetPoint" />
          </mxGeometry>
        </mxCell>
        <mxCell id="GzxjLerJVdwIG-m4BnVG-4" value="&lt;font style=&quot;font-size: 18px;&quot; face=&quot;Kanit&quot;&gt;&lt;font style=&quot;font-size: 18px;&quot;&gt;vowel = [&quot;a&quot;, &quot;e&quot;, &quot;i&quot;, &quot;o&quot;, &quot;u&quot;];&lt;br&gt;count = 0&lt;br&gt;input[21]&lt;br&gt;&lt;/font&gt;i&lt;br&gt;&lt;/font&gt;" style="rounded=1;whiteSpace=wrap;html=1;absoluteArcSize=1;arcSize=14;strokeWidth=2;fontSize=24;" vertex="1" parent="1">
          <mxGeometry x="-320" y="140" width="290" height="120" as="geometry" />
        </mxCell>
        <mxCell id="GzxjLerJVdwIG-m4BnVG-12" value="" style="edgeStyle=orthogonalEdgeStyle;rounded=0;orthogonalLoop=1;jettySize=auto;html=1;fontFamily=Kanit;fontSource=https%3A%2F%2Ffonts.googleapis.com%2Fcss%3Ffamily%3DKanit;fontSize=18;" edge="1" parent="1" source="GzxjLerJVdwIG-m4BnVG-9">
          <mxGeometry relative="1" as="geometry">
            <mxPoint x="-175" y="510" as="targetPoint" />
          </mxGeometry>
        </mxCell>
        <mxCell id="GzxjLerJVdwIG-m4BnVG-9" value="" style="shape=image;verticalLabelPosition=bottom;labelBackgroundColor=default;verticalAlign=top;aspect=fixed;imageAspect=0;image=data:image/png,iVBORw0KGgoAAAANSUhEUgAAAOYAAACCCAYAAABSD7T3AAAAAXNSR0IArs4c6QAAAHhlWElmTU0AKgAAAAgABAEaAAUAAAABAAAAPgEbAAUAAAABAAAARgEoAAMAAAABAAIAAIdpAAQAAAABAAAATgAAAAAAAACQAAAAAQAAAJAAAAABAAOgAQADAAAAAQABAACgAgAEAAAAAQAAAOagAwAEAAAAAQAAAIIAAAAANBIPsAAAAAlwSFlzAAAWJQAAFiUBSVIk8AAABQBJREFUeAHt3EFy0wYARuGkwxmYrtpFVkDvUO7BCdgwHKC7HqIn6DVjIk/HRE4xspGw9PyxYGKi2Prf8xtrEpO7O38QQAABBBBA4PsE7r9/iCMQQGBOAn/8+vn94f4eH9/v7u//PNze7fafE+aBiA8Q+HECU6Kb8ijCnELJMQg8EZgruoe3vx14Prz5/e757X/+/nf/uVeHI3yAwA0TOET3dGk5YPi/y8vd4+OY0G43vv1063lkx9E9vPka5IsvPPoHYR4BcbNHYG3RTSEszCmUHLNKAofghrOb6ZVueJUb/oxf+aa/0u2/eIa/hDkDRHcxP4GT0f33ncsXl5bDaZy4vFxLdFNoCXMKJcfMSuDWo5sCU5hTKDlmMoG5ohtfSq7j8nIyhBkOFOYMEG/lLo6jm/SdywHO0eXlqejO+c5lmbswy3bP2HZRdEfBDQ8nujOgnzhUmCfgVD4luu2ZFOb2nI3OeKnoxq98P//HBaORN3hDmCuWLroVy1n41IS5MOBv3b3ovkXGvw8EhLnA8+AQ3UzvRhlO8Ufed7nARHe5MAFhnglYdGcCc/hFBIT5DJvonsHw4VUJ3ESYh+AG1DNdXm7pfZdXfYZ58IsIbD7Mk9HdwJudL7Lui1ZPYNVhim71zx8nuBCBq4U5V3TjH4Tf3pudF3peuNsrE1gkzOPovNn5ypY9/OYInB3mRdF5s/PmnhhO+LoERmEuFd34ctP7Lq+r3KNvgcA+zHevP+1/3deLX9Uw4ZVOdFvQ7By3RmD0ijmObPz7Lv0H1q2pdb5bJjAK8+NfH7a8xbkjkCHwS2aJIQiECAgzJNOUDgFhdlxaEiIgzJBMUzoEhNlxaUmIgDBDMk3pEBBmx6UlIQLCDMk0pUNAmB2XloQICDMk05QOAWF2XFoSIiDMkExTOgSE2XFpSYiAMEMyTekQEGbHpSUhAsIMyTSlQ0CYHZeWhAgIMyTTlA4BYXZcWhIiIMyQTFM6BITZcWlJiIAwQzJN6RAQZselJSECwgzJNKVDQJgdl5aECAgzJNOUDgFhdlxaEiIgzJBMUzoEhNlxaUmIgDBDMk3pEBBmx6UlIQLCDMk0pUNAmB2XloQICDMk05QOAWF2XFoSIiDMkExTOgSE2XFpSYiAMEMyTekQEGbHpSUhAsIMyTSlQ0CYHZeWhAgIMyTTlA4BYXZcWhIiIMyQTFM6BITZcWlJiIAwQzJN6RAQZselJSECwgzJNKVDQJgdl5aECAgzJNOUDgFhdlxaEiIgzJBMUzoEhNlxaUmIgDBDMk3pEBBmx6UlIQLCDMk0pUNAmB2XloQICDMk05QOAWF2XFoSIiDMkExTOgSE2XFpSYiAMEMyTekQEGbHpSUhAsIMyTSlQ0CYHZeWhAgIMyTTlA4BYXZcWhIiIMyQTFM6BITZcWlJiIAwQzJN6RAQZselJSECwgzJNKVDQJgdl5aECAgzJNOUDgFhdlxaEiIgzJBMUzoEhNlxaUmIgDBDMk3pEBBmx6UlIQLCDMk0pUNAmB2XloQICDMk05QOAWF2XFoSIiDMkExTOgSE2XFpSYiAMEMyTekQEGbHpSUhAsIMyTSlQ0CYHZeWhAgIMyTTlA4BYXZcWhIiIMyQTFM6BITZcWlJiIAwQzJN6RAQZselJSECwgzJNKVDQJgdl5aECNwPW969/rQLbTIFgc0T8Iq5eYUGIIAAAgj8FAJfALD3Sj3CDdYVAAAAAElFTkSuQmCC;" vertex="1" parent="1">
          <mxGeometry x="-290" y="300" width="230" height="130" as="geometry" />
        </mxCell>
        <mxCell id="GzxjLerJVdwIG-m4BnVG-10" value="&lt;font style=&quot;font-size: 24px;&quot;&gt;Read input[21]&lt;/font&gt;" style="text;html=1;strokeColor=none;fillColor=none;align=center;verticalAlign=middle;whiteSpace=wrap;rounded=0;fontFamily=Kanit;fontSource=https%3A%2F%2Ffonts.googleapis.com%2Fcss%3Ffamily%3DKanit;fontSize=18;" vertex="1" parent="1">
          <mxGeometry x="-275" y="360" width="200" height="30" as="geometry" />
        </mxCell>
        <mxCell id="GzxjLerJVdwIG-m4BnVG-65" value="" style="edgeStyle=orthogonalEdgeStyle;rounded=0;orthogonalLoop=1;jettySize=auto;html=1;fontFamily=Kanit;fontSource=https%3A%2F%2Ffonts.googleapis.com%2Fcss%3Ffamily%3DKanit;fontSize=18;fontColor=#1F1F1F;" edge="1" parent="1" source="GzxjLerJVdwIG-m4BnVG-13" target="GzxjLerJVdwIG-m4BnVG-64">
          <mxGeometry relative="1" as="geometry" />
        </mxCell>
        <mxCell id="GzxjLerJVdwIG-m4BnVG-13" value="" style="shape=image;verticalLabelPosition=bottom;labelBackgroundColor=default;verticalAlign=top;aspect=fixed;imageAspect=0;image=data:image/png,iVBORw0KGgoAAAANSUhEUgAAANAAAAB0CAYAAAD0KbyMAAAAAXNSR0IArs4c6QAAAHhlWElmTU0AKgAAAAgABAEaAAUAAAABAAAAPgEbAAUAAAABAAAARgEoAAMAAAABAAIAAIdpAAQAAAABAAAATgAAAAAAAACQAAAAAQAAAJAAAAABAAOgAQADAAAAAQABAACgAgAEAAAAAQAAANCgAwAEAAAAAQAAAHQAAAAAbaC2wgAAAAlwSFlzAAAWJQAAFiUBSVIk8AAACbJJREFUeAHtnc+PFEUUx2eWSEwWjETZ5YjhglkSj0gMyXLRq/oHGDx4BRNPnIQTJxPg6kH5B9SrXHZNiIGjyZJwIcEbu67RmN2EaGTsN8wbq2dez/SPqq6a6U9feqamu+rVp+rte++786PfW5BjY+3KYEFMxUwPBPorK5d2nt3a9tBV0C5WgvbuqfON9atbnrqimwUhMBgMvlwEU/upG3lu7cr1LPQMYd7d+yR1c7HPA4GbJ+71Hr/yrJdtzhs7e3eue+gyWBdJRyDXeT46fCcYBDpOi4CutfzhPHfq8820rMtbk7QDaeQRoB/iQPmVW+JnZ/9e742dKPFULlkHkugje+TsP6dwniV2lqKpyR9MWfveYLCZcg18pGgCMdvd1O2r3z+OaQpjRyRw8sWx3v1Xn4gFp9dXz/f3Dh9uRzTHHDpJBzq5en5LrJUwPvwrZJpO47ITePPfYyIk9B4f3ZWpbq4fv/DT3sGDp/IklSO5FE7DNXVPKlskrh3jVC4zI0VpO6kINKp7LsuSXfvzAzlxQKB38fmZYRTaXzlILpVLJgK5dY8qMOwdCCgB3ROpSdvJOBCStW4VzhaBVKXtJBwIydraMrRNEhjXQwlJ29FrIDd1Q7Ke3DI8nySQmrQd3YGQrCe3CM9nEUhN2o6awiFZz9oqvFZEYJzKZRfElrajRSAk66LtQXsZAqlI21EikFv3qDxZBhrXQMAloHsnprQdxYGQrN1twOO6BFKQtlt3ICTrutuF+ywC43ookrTdag3kpm5I1tZ2oK0OgZjSdqsOhGRdZ3twzzwCIm2/nX12aPTRh1bftd1aCodkPW8b8HoTArHqoVYiEJJ1k63BvWUJyGfH5LNDbb5rO3gEcusePqJQditwXV0CbUvbwR3IlawlzHJAICSBXCr34sVWyLGk76AOpJK1/FUQuZEDAm0QGEvb2WBae4caN1gNROoWasnotwyBtqTtIA4kX4aXvcnvG5moRB++GKTMknONTwJtSdtBUjh9hyypm88tQV9VCeTqoUBf0Og9AiFZV11mrg9JILS07TUCUfeE3Ar0XZdASGnbqwMhWdddYu4LSSCXynmWtr05EJJ1yC1A300JhJK2vdRApG5Nl5f72yAQQtpu7EBI1m0sPWP4IBBC2m6cwiFZ+1ha+miLQK4e8iBtN4pASNZtLTvj+CTgU9quHYGoe3wuKX21TcCXtF3bgZCs215yxvNJIJfKNZC2azkQkrXPpaSvWAR8SNuVayBSt1jLzbghCDSVtis5EJJ1iCWkz5gEmkrblVI4JOuYS83YoQjk6qGK0nbpCKSStUiAn/31Xqi50C8EohCoK22XikBu3aPyX5RZMigEAhLQvS0Ks5QrZYYq5UBI1mVQcs2iE8ilciWl7bkOhGS96NsC+6sQqCptz3QgN3WTjjkg0AUC1/54/+U0sy+s1wBSNO9CEQHJuggZ7V0gUPa7tgsjEJJ1F7YJcywikKuHZkjbZgQaha3LSNZFeGnvAoEy0vZUBHLrHpX1ugCLOULAIqA+UCRtTzkQkrWFkbauEsilcoa0nXMgVRzE61DdurplmPckgVnS9tiB3NQN55lEyPOuEyiStociApJ117cH8y9DwJK2hxEIyboMPq7pOoFcPTSStscpXNfhMH8I1CEwdKB+v39Dbv5+9Zfhb0zW6Yh7ILDsBH7I/EN8RA71maED7Ty7td3v9YZOdPP1H5edA/ODQC0CY+fJfEV8RjoZp3A7e3euZ241bLx54p68xgEBCIwISPSRQwLN0FdG7dnz/LGxdiX7X+rLX5ZDzs6z4Vk3Cbip26O9OzmfGUcgRdNfWbkkj6mHlAjnLhN4fHT3/7pnVOa4PKbeTLp38ODp+up58bLN/SOHvYvPz7jX8xgCnSLw9Ws/9/aPHEylbgphyoHkhb3Dh9trx97d3F85OC2eJO9K5YBA1whI6nb/1SciuW1nqdun1vynUji9SGU6UjklwrlLBNy6R33Bmn+hAyFtW7ho6woBS7K25l7oQHIx0raFjLZlJ1AkWVvzlhJn7oG0PRcRFywJATd1m5SsrSnOjEB6A9K2kuC8zATmSdbW3E0VbvJCpO1JIjxfRgLzJGtrzqUcSG5E2rbw0bYsBMpI1tZcS6VweqPKeUjbSoTzMhBw6x7d42XnVToCSYduKif/YJJP6Mnvq3BAYJEJ6JunM0Xtxs7u7W+rzKVSBJKOXWlbtfIqA3ItBFIiUEWytuwuJWNbNyJtW1RoWyQCbupWRrK25lY5AmknSNtKgvMiEqgjWVvzrFQDuR249RDv2nbJ8HgRCHzxxndDM4d1j3yYtOZR24FkPKTtmtS5LSoBSd0kAs16l3VZA2uncDqAyn5I20qEc8oE3LpH924TextFIBnYTeWQtpssBfe2QaCJZG3Z1zgCSadI2xZa2lIj0FSytuZTW8a2OkPatqjQlgIBN3WrK1lb8/ASgbRjpG0lwTklAr4ka2tOjWsgt1O3HkLadsnwOCYBX5K1NQevDiQDIG1bmGmLRcCnZG3NwWsKpwOoPIi0rUQ4xyDg1j26J33b4T0CiYFuKoe07XvJ6K8sAd+StTVukAgkAyFtW7hpa4tACMnast2rjG0NgLRtUaEtJAE3dfMpWVs2B4tAOhjStpLg3AaBkJK1ZX+QGsgdyK2HkLZdMjwOQSCkZG3ZG9yBZFCkbQs9bb4JhJasLXuDp3A6qMqISNtKhLNPArm6Z/f2JZ99z+qrNQea/K7t4ecxZlnGaxCoQEC/n0M+IFfhtsaXtuZAYinSduP1ogODQO7/PQ0+XWp0PbeplRrIteK3w4d3+e0hlwiPmxCQ1G34Gz5ZJ5lk3Vrqpja3GoF0UOohJcG5CQG37mk7dVO7W49AMjDStuLn3IRAzNRN7Y7iQDK4K22LoMBvseqScC5DIIZkbdkVzYHEmPXjF37tDQaXRz/iym+xWitE2xQBN3XL6p63pi5osSFKDaTzc6Vt/j+kVDjPIxBLsrbsiupAYhDStrUstBURSKHucW2LmsKpIUjbSoLzLAKxJWvLtugRSI1C2lYSnC0Cbt0TS7K27EoiAolhSNvW8tCmBFJL3dSuZBxIDELa1mXh7BJIRbJ2bdLHSTmQGIW0rUvDWQi4qVtsydpakWRqIDUOaVtJcBYCKUnW1ook50BiJNK2tVTda0u17nFXIrkUTo1D2lYS3TynKFlbK5FkBFJDkbaVRLfObt2TkmRtrUKyEUiMRdq2lmz52xYhddNVyBw8/WNj/epW9qbTzfQtxUJvBPr97UctfrdBXbuTTuF0UprK6XPOy09gEZxHVuE/QYHCjIZ1LQoAAAAASUVORK5CYII=;" vertex="1" parent="1">
          <mxGeometry x="-302" y="510" width="254" height="141.65" as="geometry" />
        </mxCell>
        <mxCell id="GzxjLerJVdwIG-m4BnVG-14" value="&lt;font color=&quot;#ffffff&quot;&gt;for i = 0 - 19&lt;/font&gt;" style="text;html=1;strokeColor=none;fillColor=none;align=center;verticalAlign=middle;whiteSpace=wrap;rounded=0;fontFamily=Kanit;fontSource=https%3A%2F%2Ffonts.googleapis.com%2Fcss%3Ffamily%3DKanit;fontSize=24;" vertex="1" parent="1">
          <mxGeometry x="-265" y="565.83" width="180" height="30" as="geometry" />
        </mxCell>
        <mxCell id="GzxjLerJVdwIG-m4BnVG-26" value="" style="verticalLabelPosition=bottom;verticalAlign=top;html=1;shape=mxgraph.flowchart.on-page_reference;fontFamily=Kanit;fontSource=https%3A%2F%2Ffonts.googleapis.com%2Fcss%3Ffamily%3DKanit;fontSize=24;fontColor=#FFFFFF;" vertex="1" parent="1">
          <mxGeometry x="-205" y="1680" width="60" height="60" as="geometry" />
        </mxCell>
        <mxCell id="GzxjLerJVdwIG-m4BnVG-62" style="edgeStyle=orthogonalEdgeStyle;rounded=0;orthogonalLoop=1;jettySize=auto;html=1;entryX=0;entryY=0.5;entryDx=0;entryDy=0;fontFamily=Kanit;fontSource=https%3A%2F%2Ffonts.googleapis.com%2Fcss%3Ffamily%3DKanit;fontSize=18;fontColor=#1F1F1F;" edge="1" parent="1" source="GzxjLerJVdwIG-m4BnVG-28" target="GzxjLerJVdwIG-m4BnVG-13">
          <mxGeometry relative="1" as="geometry">
            <Array as="points">
              <mxPoint x="-450" y="1710" />
              <mxPoint x="-450" y="581" />
            </Array>
          </mxGeometry>
        </mxCell>
        <mxCell id="GzxjLerJVdwIG-m4BnVG-86" value="" style="edgeStyle=orthogonalEdgeStyle;rounded=0;orthogonalLoop=1;jettySize=auto;html=1;fontFamily=Kanit;fontSource=https%3A%2F%2Ffonts.googleapis.com%2Fcss%3Ffamily%3DKanit;fontSize=18;fontColor=#1F1F1F;" edge="1" parent="1" source="GzxjLerJVdwIG-m4BnVG-28" target="GzxjLerJVdwIG-m4BnVG-85">
          <mxGeometry relative="1" as="geometry" />
        </mxCell>
        <mxCell id="GzxjLerJVdwIG-m4BnVG-28" value="&lt;font color=&quot;#1f1f1f&quot;&gt;i&lt;br&gt;&lt;/font&gt;" style="text;html=1;strokeColor=none;fillColor=none;align=center;verticalAlign=middle;whiteSpace=wrap;rounded=0;fontFamily=Kanit;fontSource=https%3A%2F%2Ffonts.googleapis.com%2Fcss%3Ffamily%3DKanit;fontSize=24;fontColor=#FFFFFF;" vertex="1" parent="1">
          <mxGeometry x="-205" y="1695" width="60" height="30" as="geometry" />
        </mxCell>
        <mxCell id="GzxjLerJVdwIG-m4BnVG-50" style="edgeStyle=orthogonalEdgeStyle;rounded=0;orthogonalLoop=1;jettySize=auto;html=1;entryX=1;entryY=0.5;entryDx=0;entryDy=0;fontFamily=Kanit;fontSource=https%3A%2F%2Ffonts.googleapis.com%2Fcss%3Ffamily%3DKanit;fontSize=24;fontColor=#1F1F1F;" edge="1" parent="1" source="GzxjLerJVdwIG-m4BnVG-31" target="GzxjLerJVdwIG-m4BnVG-28">
          <mxGeometry relative="1" as="geometry">
            <Array as="points">
              <mxPoint x="414" y="1710" />
            </Array>
          </mxGeometry>
        </mxCell>
        <mxCell id="GzxjLerJVdwIG-m4BnVG-31" value="&lt;font face=&quot;Kanit&quot;&gt;&lt;font style=&quot;font-size: 24px;&quot;&gt;count++&lt;/font&gt;&lt;br&gt;&lt;/font&gt;" style="rounded=1;whiteSpace=wrap;html=1;absoluteArcSize=1;arcSize=14;strokeWidth=2;fontSize=24;" vertex="1" parent="1">
          <mxGeometry x="269" y="1110" width="290" height="120" as="geometry" />
        </mxCell>
        <mxCell id="GzxjLerJVdwIG-m4BnVG-33" value="" style="edgeStyle=orthogonalEdgeStyle;rounded=0;orthogonalLoop=1;jettySize=auto;html=1;fontFamily=Kanit;fontSource=https%3A%2F%2Ffonts.googleapis.com%2Fcss%3Ffamily%3DKanit;fontSize=24;fontColor=#1F1F1F;" edge="1" parent="1" source="GzxjLerJVdwIG-m4BnVG-32" target="GzxjLerJVdwIG-m4BnVG-31">
          <mxGeometry relative="1" as="geometry" />
        </mxCell>
        <mxCell id="GzxjLerJVdwIG-m4BnVG-32" value="" style="verticalLabelPosition=bottom;verticalAlign=top;html=1;shape=mxgraph.flowchart.on-page_reference;fontFamily=Kanit;fontSource=https%3A%2F%2Ffonts.googleapis.com%2Fcss%3Ffamily%3DKanit;fontSize=24;fontColor=#1F1F1F;" vertex="1" parent="1">
          <mxGeometry x="120" y="1140" width="60" height="60" as="geometry" />
        </mxCell>
        <mxCell id="GzxjLerJVdwIG-m4BnVG-42" style="edgeStyle=orthogonalEdgeStyle;rounded=0;orthogonalLoop=1;jettySize=auto;html=1;fontFamily=Kanit;fontSource=https%3A%2F%2Ffonts.googleapis.com%2Fcss%3Ffamily%3DKanit;fontSize=24;fontColor=#1F1F1F;" edge="1" parent="1" source="GzxjLerJVdwIG-m4BnVG-37" target="GzxjLerJVdwIG-m4BnVG-32">
          <mxGeometry relative="1" as="geometry" />
        </mxCell>
        <mxCell id="GzxjLerJVdwIG-m4BnVG-37" value="" style="verticalLabelPosition=bottom;verticalAlign=top;html=1;shape=mxgraph.flowchart.on-page_reference;fontFamily=Kanit;fontSource=https%3A%2F%2Ffonts.googleapis.com%2Fcss%3Ffamily%3DKanit;fontSize=24;fontColor=#1F1F1F;" vertex="1" parent="1">
          <mxGeometry x="120" y="960" width="60" height="60" as="geometry" />
        </mxCell>
        <mxCell id="GzxjLerJVdwIG-m4BnVG-40" style="edgeStyle=orthogonalEdgeStyle;rounded=0;orthogonalLoop=1;jettySize=auto;html=1;fontFamily=Kanit;fontSource=https%3A%2F%2Ffonts.googleapis.com%2Fcss%3Ffamily%3DKanit;fontSize=24;fontColor=#1F1F1F;" edge="1" parent="1" source="GzxjLerJVdwIG-m4BnVG-38" target="GzxjLerJVdwIG-m4BnVG-37">
          <mxGeometry relative="1" as="geometry" />
        </mxCell>
        <mxCell id="GzxjLerJVdwIG-m4BnVG-38" value="" style="verticalLabelPosition=bottom;verticalAlign=top;html=1;shape=mxgraph.flowchart.on-page_reference;fontFamily=Kanit;fontSource=https%3A%2F%2Ffonts.googleapis.com%2Fcss%3Ffamily%3DKanit;fontSize=24;fontColor=#1F1F1F;" vertex="1" parent="1">
          <mxGeometry x="120" y="770" width="60" height="60" as="geometry" />
        </mxCell>
        <mxCell id="GzxjLerJVdwIG-m4BnVG-48" style="edgeStyle=orthogonalEdgeStyle;rounded=0;orthogonalLoop=1;jettySize=auto;html=1;fontFamily=Kanit;fontSource=https%3A%2F%2Ffonts.googleapis.com%2Fcss%3Ffamily%3DKanit;fontSize=24;fontColor=#1F1F1F;" edge="1" parent="1" source="GzxjLerJVdwIG-m4BnVG-44" target="GzxjLerJVdwIG-m4BnVG-32">
          <mxGeometry relative="1" as="geometry" />
        </mxCell>
        <mxCell id="GzxjLerJVdwIG-m4BnVG-44" value="" style="verticalLabelPosition=bottom;verticalAlign=top;html=1;shape=mxgraph.flowchart.on-page_reference;fontFamily=Kanit;fontSource=https%3A%2F%2Ffonts.googleapis.com%2Fcss%3Ffamily%3DKanit;fontSize=24;fontColor=#1F1F1F;" vertex="1" parent="1">
          <mxGeometry x="120" y="1320" width="60" height="60" as="geometry" />
        </mxCell>
        <mxCell id="GzxjLerJVdwIG-m4BnVG-47" style="edgeStyle=orthogonalEdgeStyle;rounded=0;orthogonalLoop=1;jettySize=auto;html=1;entryX=0.5;entryY=1;entryDx=0;entryDy=0;entryPerimeter=0;fontFamily=Kanit;fontSource=https%3A%2F%2Ffonts.googleapis.com%2Fcss%3Ffamily%3DKanit;fontSize=24;fontColor=#1F1F1F;" edge="1" parent="1" source="GzxjLerJVdwIG-m4BnVG-45" target="GzxjLerJVdwIG-m4BnVG-44">
          <mxGeometry relative="1" as="geometry" />
        </mxCell>
        <mxCell id="GzxjLerJVdwIG-m4BnVG-45" value="" style="verticalLabelPosition=bottom;verticalAlign=top;html=1;shape=mxgraph.flowchart.on-page_reference;fontFamily=Kanit;fontSource=https%3A%2F%2Ffonts.googleapis.com%2Fcss%3Ffamily%3DKanit;fontSize=24;fontColor=#1F1F1F;" vertex="1" parent="1">
          <mxGeometry x="120" y="1520" width="60" height="60" as="geometry" />
        </mxCell>
        <mxCell id="GzxjLerJVdwIG-m4BnVG-51" value="true" style="text;html=1;strokeColor=none;fillColor=none;align=center;verticalAlign=middle;whiteSpace=wrap;rounded=0;fontFamily=Kanit;fontSource=https%3A%2F%2Ffonts.googleapis.com%2Fcss%3Ffamily%3DKanit;fontSize=24;fontColor=#1F1F1F;" vertex="1" parent="1">
          <mxGeometry x="20" y="770" width="60" height="30" as="geometry" />
        </mxCell>
        <mxCell id="GzxjLerJVdwIG-m4BnVG-52" value="true" style="text;html=1;strokeColor=none;fillColor=none;align=center;verticalAlign=middle;whiteSpace=wrap;rounded=0;fontFamily=Kanit;fontSource=https%3A%2F%2Ffonts.googleapis.com%2Fcss%3Ffamily%3DKanit;fontSize=24;fontColor=#1F1F1F;" vertex="1" parent="1">
          <mxGeometry x="20" y="960" width="60" height="30" as="geometry" />
        </mxCell>
        <mxCell id="GzxjLerJVdwIG-m4BnVG-53" value="true" style="text;html=1;strokeColor=none;fillColor=none;align=center;verticalAlign=middle;whiteSpace=wrap;rounded=0;fontFamily=Kanit;fontSource=https%3A%2F%2Ffonts.googleapis.com%2Fcss%3Ffamily%3DKanit;fontSize=24;fontColor=#1F1F1F;" vertex="1" parent="1">
          <mxGeometry x="20" y="1139" width="60" height="30" as="geometry" />
        </mxCell>
        <mxCell id="GzxjLerJVdwIG-m4BnVG-54" value="true" style="text;html=1;strokeColor=none;fillColor=none;align=center;verticalAlign=middle;whiteSpace=wrap;rounded=0;fontFamily=Kanit;fontSource=https%3A%2F%2Ffonts.googleapis.com%2Fcss%3Ffamily%3DKanit;fontSize=24;fontColor=#1F1F1F;" vertex="1" parent="1">
          <mxGeometry x="20" y="1320" width="60" height="30" as="geometry" />
        </mxCell>
        <mxCell id="GzxjLerJVdwIG-m4BnVG-55" value="true" style="text;html=1;strokeColor=none;fillColor=none;align=center;verticalAlign=middle;whiteSpace=wrap;rounded=0;fontFamily=Kanit;fontSource=https%3A%2F%2Ffonts.googleapis.com%2Fcss%3Ffamily%3DKanit;fontSize=24;fontColor=#1F1F1F;" vertex="1" parent="1">
          <mxGeometry x="20" y="1520" width="60" height="30" as="geometry" />
        </mxCell>
        <mxCell id="GzxjLerJVdwIG-m4BnVG-56" value="false" style="text;html=1;strokeColor=none;fillColor=none;align=center;verticalAlign=middle;whiteSpace=wrap;rounded=0;fontFamily=Kanit;fontSource=https%3A%2F%2Ffonts.googleapis.com%2Fcss%3Ffamily%3DKanit;fontSize=24;fontColor=#1F1F1F;" vertex="1" parent="1">
          <mxGeometry x="-170" y="880" width="60" height="30" as="geometry" />
        </mxCell>
        <mxCell id="GzxjLerJVdwIG-m4BnVG-60" value="false" style="text;html=1;strokeColor=none;fillColor=none;align=center;verticalAlign=middle;whiteSpace=wrap;rounded=0;fontFamily=Kanit;fontSource=https%3A%2F%2Ffonts.googleapis.com%2Fcss%3Ffamily%3DKanit;fontSize=24;fontColor=#1F1F1F;" vertex="1" parent="1">
          <mxGeometry x="-170" y="1640" width="60" height="30" as="geometry" />
        </mxCell>
        <mxCell id="GzxjLerJVdwIG-m4BnVG-68" style="edgeStyle=orthogonalEdgeStyle;rounded=0;orthogonalLoop=1;jettySize=auto;html=1;entryX=0;entryY=0.5;entryDx=0;entryDy=0;entryPerimeter=0;fontFamily=Kanit;fontSource=https%3A%2F%2Ffonts.googleapis.com%2Fcss%3Ffamily%3DKanit;fontSize=18;fontColor=#1F1F1F;" edge="1" parent="1" source="GzxjLerJVdwIG-m4BnVG-64" target="GzxjLerJVdwIG-m4BnVG-38">
          <mxGeometry relative="1" as="geometry" />
        </mxCell>
        <mxCell id="GzxjLerJVdwIG-m4BnVG-70" style="edgeStyle=orthogonalEdgeStyle;rounded=0;orthogonalLoop=1;jettySize=auto;html=1;entryX=0.5;entryY=0;entryDx=0;entryDy=0;entryPerimeter=0;fontFamily=Kanit;fontSource=https%3A%2F%2Ffonts.googleapis.com%2Fcss%3Ffamily%3DKanit;fontSize=18;fontColor=#1F1F1F;" edge="1" parent="1" source="GzxjLerJVdwIG-m4BnVG-64" target="GzxjLerJVdwIG-m4BnVG-69">
          <mxGeometry relative="1" as="geometry" />
        </mxCell>
        <mxCell id="GzxjLerJVdwIG-m4BnVG-64" value="&lt;span style=&quot;color: rgb(0, 0, 0);&quot;&gt;checking input[i] == vowel[0]&lt;/span&gt;" style="strokeWidth=2;html=1;shape=mxgraph.flowchart.decision;whiteSpace=wrap;fontFamily=Kanit;fontSource=https%3A%2F%2Ffonts.googleapis.com%2Fcss%3Ffamily%3DKanit;fontSize=18;fontColor=#1F1F1F;" vertex="1" parent="1">
          <mxGeometry x="-330" y="725" width="310" height="150" as="geometry" />
        </mxCell>
        <mxCell id="GzxjLerJVdwIG-m4BnVG-71" style="edgeStyle=orthogonalEdgeStyle;rounded=0;orthogonalLoop=1;jettySize=auto;html=1;entryX=0;entryY=0.5;entryDx=0;entryDy=0;entryPerimeter=0;fontFamily=Kanit;fontSource=https%3A%2F%2Ffonts.googleapis.com%2Fcss%3Ffamily%3DKanit;fontSize=18;fontColor=#1F1F1F;" edge="1" parent="1" source="GzxjLerJVdwIG-m4BnVG-69" target="GzxjLerJVdwIG-m4BnVG-37">
          <mxGeometry relative="1" as="geometry" />
        </mxCell>
        <mxCell id="GzxjLerJVdwIG-m4BnVG-73" value="" style="edgeStyle=orthogonalEdgeStyle;rounded=0;orthogonalLoop=1;jettySize=auto;html=1;fontFamily=Kanit;fontSource=https%3A%2F%2Ffonts.googleapis.com%2Fcss%3Ffamily%3DKanit;fontSize=18;fontColor=#1F1F1F;" edge="1" parent="1" source="GzxjLerJVdwIG-m4BnVG-69" target="GzxjLerJVdwIG-m4BnVG-72">
          <mxGeometry relative="1" as="geometry" />
        </mxCell>
        <mxCell id="GzxjLerJVdwIG-m4BnVG-69" value="&lt;span style=&quot;color: rgb(0, 0, 0);&quot;&gt;checking input[i] == vowel[0]&lt;/span&gt;" style="strokeWidth=2;html=1;shape=mxgraph.flowchart.decision;whiteSpace=wrap;fontFamily=Kanit;fontSource=https%3A%2F%2Ffonts.googleapis.com%2Fcss%3Ffamily%3DKanit;fontSize=18;fontColor=#1F1F1F;" vertex="1" parent="1">
          <mxGeometry x="-330" y="915" width="310" height="150" as="geometry" />
        </mxCell>
        <mxCell id="GzxjLerJVdwIG-m4BnVG-74" style="edgeStyle=orthogonalEdgeStyle;rounded=0;orthogonalLoop=1;jettySize=auto;html=1;entryX=0;entryY=0.5;entryDx=0;entryDy=0;entryPerimeter=0;fontFamily=Kanit;fontSource=https%3A%2F%2Ffonts.googleapis.com%2Fcss%3Ffamily%3DKanit;fontSize=18;fontColor=#1F1F1F;" edge="1" parent="1" source="GzxjLerJVdwIG-m4BnVG-72" target="GzxjLerJVdwIG-m4BnVG-32">
          <mxGeometry relative="1" as="geometry" />
        </mxCell>
        <mxCell id="GzxjLerJVdwIG-m4BnVG-76" value="" style="edgeStyle=orthogonalEdgeStyle;rounded=0;orthogonalLoop=1;jettySize=auto;html=1;fontFamily=Kanit;fontSource=https%3A%2F%2Ffonts.googleapis.com%2Fcss%3Ffamily%3DKanit;fontSize=18;fontColor=#1F1F1F;" edge="1" parent="1" source="GzxjLerJVdwIG-m4BnVG-72" target="GzxjLerJVdwIG-m4BnVG-75">
          <mxGeometry relative="1" as="geometry" />
        </mxCell>
        <mxCell id="GzxjLerJVdwIG-m4BnVG-72" value="&lt;span style=&quot;color: rgb(0, 0, 0);&quot;&gt;checking input[i] == vowel[0]&lt;/span&gt;" style="strokeWidth=2;html=1;shape=mxgraph.flowchart.decision;whiteSpace=wrap;fontFamily=Kanit;fontSource=https%3A%2F%2Ffonts.googleapis.com%2Fcss%3Ffamily%3DKanit;fontSize=18;fontColor=#1F1F1F;" vertex="1" parent="1">
          <mxGeometry x="-330" y="1095" width="310" height="150" as="geometry" />
        </mxCell>
        <mxCell id="GzxjLerJVdwIG-m4BnVG-77" style="edgeStyle=orthogonalEdgeStyle;rounded=0;orthogonalLoop=1;jettySize=auto;html=1;entryX=0;entryY=0.5;entryDx=0;entryDy=0;entryPerimeter=0;fontFamily=Kanit;fontSource=https%3A%2F%2Ffonts.googleapis.com%2Fcss%3Ffamily%3DKanit;fontSize=18;fontColor=#1F1F1F;" edge="1" parent="1" source="GzxjLerJVdwIG-m4BnVG-75" target="GzxjLerJVdwIG-m4BnVG-44">
          <mxGeometry relative="1" as="geometry" />
        </mxCell>
        <mxCell id="GzxjLerJVdwIG-m4BnVG-81" value="" style="edgeStyle=orthogonalEdgeStyle;rounded=0;orthogonalLoop=1;jettySize=auto;html=1;fontFamily=Kanit;fontSource=https%3A%2F%2Ffonts.googleapis.com%2Fcss%3Ffamily%3DKanit;fontSize=18;fontColor=#1F1F1F;" edge="1" parent="1" source="GzxjLerJVdwIG-m4BnVG-75" target="GzxjLerJVdwIG-m4BnVG-78">
          <mxGeometry relative="1" as="geometry" />
        </mxCell>
        <mxCell id="GzxjLerJVdwIG-m4BnVG-75" value="&lt;span style=&quot;color: rgb(0, 0, 0);&quot;&gt;checking input[i] == vowel[0]&lt;/span&gt;" style="strokeWidth=2;html=1;shape=mxgraph.flowchart.decision;whiteSpace=wrap;fontFamily=Kanit;fontSource=https%3A%2F%2Ffonts.googleapis.com%2Fcss%3Ffamily%3DKanit;fontSize=18;fontColor=#1F1F1F;" vertex="1" parent="1">
          <mxGeometry x="-330" y="1275" width="310" height="150" as="geometry" />
        </mxCell>
        <mxCell id="GzxjLerJVdwIG-m4BnVG-79" style="edgeStyle=orthogonalEdgeStyle;rounded=0;orthogonalLoop=1;jettySize=auto;html=1;entryX=0;entryY=0.5;entryDx=0;entryDy=0;entryPerimeter=0;fontFamily=Kanit;fontSource=https%3A%2F%2Ffonts.googleapis.com%2Fcss%3Ffamily%3DKanit;fontSize=18;fontColor=#1F1F1F;" edge="1" parent="1" source="GzxjLerJVdwIG-m4BnVG-78" target="GzxjLerJVdwIG-m4BnVG-45">
          <mxGeometry relative="1" as="geometry" />
        </mxCell>
        <mxCell id="GzxjLerJVdwIG-m4BnVG-80" style="edgeStyle=orthogonalEdgeStyle;rounded=0;orthogonalLoop=1;jettySize=auto;html=1;entryX=0.5;entryY=0;entryDx=0;entryDy=0;entryPerimeter=0;fontFamily=Kanit;fontSource=https%3A%2F%2Ffonts.googleapis.com%2Fcss%3Ffamily%3DKanit;fontSize=18;fontColor=#1F1F1F;" edge="1" parent="1" source="GzxjLerJVdwIG-m4BnVG-78" target="GzxjLerJVdwIG-m4BnVG-26">
          <mxGeometry relative="1" as="geometry" />
        </mxCell>
        <mxCell id="GzxjLerJVdwIG-m4BnVG-78" value="&lt;span style=&quot;color: rgb(0, 0, 0);&quot;&gt;checking input[i] == vowel[0]&lt;/span&gt;" style="strokeWidth=2;html=1;shape=mxgraph.flowchart.decision;whiteSpace=wrap;fontFamily=Kanit;fontSource=https%3A%2F%2Ffonts.googleapis.com%2Fcss%3Ffamily%3DKanit;fontSize=18;fontColor=#1F1F1F;" vertex="1" parent="1">
          <mxGeometry x="-330" y="1475" width="310" height="150" as="geometry" />
        </mxCell>
        <mxCell id="GzxjLerJVdwIG-m4BnVG-82" value="false" style="text;html=1;strokeColor=none;fillColor=none;align=center;verticalAlign=middle;whiteSpace=wrap;rounded=0;fontFamily=Kanit;fontSource=https%3A%2F%2Ffonts.googleapis.com%2Fcss%3Ffamily%3DKanit;fontSize=24;fontColor=#1F1F1F;" vertex="1" parent="1">
          <mxGeometry x="-170" y="1065" width="60" height="30" as="geometry" />
        </mxCell>
        <mxCell id="GzxjLerJVdwIG-m4BnVG-83" value="false" style="text;html=1;strokeColor=none;fillColor=none;align=center;verticalAlign=middle;whiteSpace=wrap;rounded=0;fontFamily=Kanit;fontSource=https%3A%2F%2Ffonts.googleapis.com%2Fcss%3Ffamily%3DKanit;fontSize=24;fontColor=#1F1F1F;" vertex="1" parent="1">
          <mxGeometry x="-170" y="1245" width="60" height="30" as="geometry" />
        </mxCell>
        <mxCell id="GzxjLerJVdwIG-m4BnVG-84" value="false" style="text;html=1;strokeColor=none;fillColor=none;align=center;verticalAlign=middle;whiteSpace=wrap;rounded=0;fontFamily=Kanit;fontSource=https%3A%2F%2Ffonts.googleapis.com%2Fcss%3Ffamily%3DKanit;fontSize=24;fontColor=#1F1F1F;" vertex="1" parent="1">
          <mxGeometry x="-170" y="1440" width="60" height="30" as="geometry" />
        </mxCell>
        <mxCell id="GzxjLerJVdwIG-m4BnVG-89" value="" style="edgeStyle=orthogonalEdgeStyle;rounded=0;orthogonalLoop=1;jettySize=auto;html=1;fontFamily=Kanit;fontSource=https%3A%2F%2Ffonts.googleapis.com%2Fcss%3Ffamily%3DKanit;fontSize=23;fontColor=#1F1F1F;" edge="1" parent="1" source="GzxjLerJVdwIG-m4BnVG-85" target="GzxjLerJVdwIG-m4BnVG-2">
          <mxGeometry relative="1" as="geometry" />
        </mxCell>
        <mxCell id="GzxjLerJVdwIG-m4BnVG-85" value="&lt;font style=&quot;font-size: 23px;&quot;&gt;vowel = count&lt;br&gt;non vowel = 20 - count&lt;/font&gt;" style="strokeWidth=2;html=1;shape=mxgraph.flowchart.display;whiteSpace=wrap;fontFamily=Kanit;fontSource=https%3A%2F%2Ffonts.googleapis.com%2Fcss%3Ffamily%3DKanit;fontSize=18;fontColor=#1F1F1F;" vertex="1" parent="1">
          <mxGeometry x="-343.25" y="1790" width="336.5" height="140" as="geometry" />
        </mxCell>
      </root>
    </mxGraphModel>
  </diagram>
</mxfile>
